<svg data-name="Layer 1" viewBox="0 0 32 32" xmlns="http://www.w3.org/2000/svg"><path d="M27 22H11a1 1 0 0 1-.94-.67L4.29 5H1a1 1 0 0 1 0-2h4a1 1 0 0 1 .94.67L11.71 20h14.57l3.77-11.32a1 1 0 1 1 1.9.64l-4 12A1 1 0 0 1 27 22Z" fill="#1c314e" class="fill-000000"></path><path d="M28 10H10a1 1 0 0 1 0-2h18a1 1 0 0 1 0 2ZM26 14H12a1 1 0 0 1 0-2h14a1 1 0 0 1 0 2ZM25 18H13a1 1 0 0 1 0-2h12a1 1 0 0 1 0 2ZM25 29a3 3 0 1 1 3-3 3 3 0 0 1-3 3Zm0-4a1 1 0 1 0 1 1 1 1 0 0 0-1-1ZM13 29a3 3 0 1 1 3-3 3 3 0 0 1-3 3Zm0-4a1 1 0 1 0 1 1 1 1 0 0 0-1-1Z" fill="#1c314e" class="fill-000000"></path></svg>