<svg data-name="Layer 1" viewBox="0 0 52 52" xmlns="http://www.w3.org/2000/svg"><path d="M50 8H38V2a2 2 0 0 0-2-2H16a2 2 0 0 0-2 2v6H2a2 2 0 0 0 0 4h7v38a2 2 0 0 0 2 2h30a2 2 0 0 0 2-2V12h7a2 2 0 0 0 0-4ZM18 4h16v4H18Zm21 44H13V12h26Z" fill="#bd3d3d" class="fill-000000"></path><path d="M26 14.45a2 2 0 0 0-2 2v28.44a2 2 0 0 0 4 0V16.45a2 2 0 0 0-2-2ZM33.56 14.45a2 2 0 0 0-2 2v28.44a2 2 0 1 0 4 0V16.45a2 2 0 0 0-2-2ZM18.44 14.45a2 2 0 0 0-2 2v28.44a2 2 0 0 0 4 0V16.45a2 2 0 0 0-2-2Z" fill="#bd3d3d" class="fill-000000"></path></svg>